<?xml version="1.0" standalone="no"?>
<!DOCTYPE svg PUBLIC "-//W3C//DTD SVG 20010904//EN"
 "http://www.w3.org/TR/2001/REC-SVG-20010904/DTD/svg10.dtd">
<svg version="1.0" xmlns="http://www.w3.org/2000/svg"
 width="474.000000pt" height="268.000000pt" viewBox="0 0 474.000000 268.000000"
 preserveAspectRatio="xMidYMid meet">
<metadata>
Created by potrace 1.16, written by Peter Selinger 2001-2019
</metadata>
<g transform="translate(0.000000,268.000000) scale(0.100000,-0.100000)"
fill="#000000" stroke="none">
<path d="M1150 1340 l0 -1290 1223 0 1222 0 0 1290 0 1290 -1222 0 -1223 0 0
-1290z m1012 745 c77 -104 154 -211 171 -237 18 -26 35 -48 38 -48 4 0 85 108
180 240 l174 240 258 0 257 0 0 -165 c0 -91 1 -168 3 -171 1 -4 -27 -7 -63 -8
l-65 -1 -3 -272 -2 -272 67 -3 c58 -3 68 -6 67 -20 -1 -10 -2 -88 -3 -173 l-1
-155 -325 0 -325 0 0 175 0 175 70 0 70 0 0 177 0 177 -59 -80 c-32 -43 -113
-152 -179 -242 l-121 -163 -172 236 c-94 129 -175 235 -179 235 -5 0 -7 -8 -5
-17 2 -10 4 -87 4 -170 l1 -153 70 0 70 0 0 -175 0 -175 -330 0 -330 0 0 175
0 174 68 3 67 3 0 270 c0 233 -2 270 -15 271 -8 1 -39 2 -67 3 l-53 1 0 170 0
170 261 -2 262 -3 139 -190z m918 -1230 c34 -17 44 -44 36 -91 -8 -40 -51 -68
-91 -58 -29 7 -65 48 -65 75 0 29 21 66 44 77 29 15 43 14 76 -3z m-1474 -272
c13 -32 30 -71 38 -88 l14 -30 40 88 c40 86 41 87 76 87 37 0 48 -13 21 -24
-24 -9 -22 -184 3 -202 15 -12 9 -13 -43 -13 -50 0 -57 2 -43 12 11 9 17 32
20 80 1 37 1 67 -2 67 -3 0 -20 -36 -39 -80 -23 -54 -39 -80 -49 -78 -8 2 -29
39 -46 83 l-31 80 -3 -69 c-2 -56 0 -70 15 -82 16 -12 13 -13 -29 -14 -27 0
-48 5 -48 10 0 6 7 10 15 10 12 0 15 18 15 100 0 60 -4 100 -10 100 -5 0 -10
5 -10 10 0 6 16 10 36 10 33 0 36 -3 60 -57z m501 45 c29 -11 33 -16 33 -48
l0 -35 -19 31 c-54 89 -159 18 -130 -88 5 -21 18 -42 29 -48 28 -15 76 -12 94
5 22 22 39 19 24 -5 -19 -31 -80 -51 -119 -40 -71 21 -103 85 -80 161 20 67
90 95 168 67z m153 3 c0 -5 -4 -11 -10 -13 -5 -1 -11 -19 -12 -38 l-3 -35 53
-3 52 -3 0 36 c0 22 -6 38 -15 41 -31 12 -13 24 35 24 46 0 67 -13 38 -23 -18
-5 -18 -189 0 -195 29 -9 8 -22 -38 -22 -27 0 -50 5 -50 10 0 6 7 10 15 10 11
0 15 12 15 46 l0 45 -52 -3 -53 -3 -1 -35 c0 -24 6 -40 20 -52 20 -17 19 -18
-39 -17 -52 0 -58 1 -42 13 24 18 26 206 2 206 -8 0 -15 5 -15 10 0 6 23 10
50 10 28 0 50 -4 50 -9z m451 -2 c32 -10 37 -16 37 -40 -1 -16 -2 -29 -4 -29
-1 0 -16 14 -32 30 -37 36 -65 38 -97 5 -50 -49 -22 -175 39 -175 40 0 65 53
31 66 -29 12 -14 24 28 24 52 0 62 -7 41 -28 -9 -8 -13 -23 -11 -33 7 -24 -14
-40 -65 -49 -103 -19 -171 76 -129 179 23 55 82 73 162 50z m230 -96 c32 -98
38 -108 60 -108 23 0 24 2 27 93 2 76 0 93 -13 98 -27 11 -16 22 18 20 28 -1
42 -11 82 -61 79 -99 75 -98 75 -26 0 54 -3 64 -20 68 -38 10 -20 23 30 22 28
-1 50 -6 50 -10 0 -5 -7 -9 -15 -9 -12 0 -15 -15 -15 -79 0 -81 -8 -141 -19
-141 -3 0 -30 32 -60 70 -86 110 -88 112 -90 43 -1 -68 5 -93 25 -93 8 0 14
-4 14 -10 0 -6 -41 -10 -102 -10 -90 1 -101 2 -85 15 10 7 17 22 15 32 -5 26
-83 32 -92 6 -4 -11 -1 -22 8 -29 26 -18 19 -24 -29 -24 -25 0 -45 5 -45 10 0
6 6 10 13 10 8 0 29 42 52 103 57 153 68 154 116 10z"/>
</g>
</svg>
