<?xml version="1.0" standalone="no"?>
<!DOCTYPE svg PUBLIC "-//W3C//DTD SVG 20010904//EN"
 "http://www.w3.org/TR/2001/REC-SVG-20010904/DTD/svg10.dtd">
<svg version="1.0" xmlns="http://www.w3.org/2000/svg"
 width="300.000000pt" height="300.000000pt" viewBox="0 0 300.000000 300.000000"
 preserveAspectRatio="xMidYMid meet">
<metadata>
Created by potrace 1.16, written by Peter Selinger 2001-2019
</metadata>
<g transform="translate(0.000000,300.000000) scale(0.100000,-0.100000)"
fill="#000000" stroke="none">
<path d="M1375 2540 c-229 -29 -452 -139 -613 -302 -92 -93 -138 -155 -191
-257 -209 -402 -144 -873 167 -1203 155 -165 351 -273 569 -314 133 -25 357
-15 477 20 229 69 421 199 557 379 236 313 279 734 109 1083 -125 258 -321
436 -595 539 -135 50 -334 73 -480 55z m313 -65 c208 -40 381 -134 533 -291
92 -97 128 -148 185 -269 73 -154 87 -222 87 -420 0 -195 -13 -264 -82 -410
-130 -277 -372 -480 -661 -555 -118 -30 -296 -37 -418 -16 -438 76 -773 433
-823 878 -58 520 315 1004 841 1091 64 11 264 6 338 -8z"/>
<path d="M1905 2270 c-8 -16 -15 -36 -15 -44 0 -8 -10 -22 -22 -30 -27 -19
-129 -22 -158 -4 -29 18 -39 -1 -11 -23 15 -12 39 -19 67 -19 73 0 68 -38 -6
-41 -31 -1 -32 -2 -10 -8 33 -10 100 6 125 28 32 29 42 32 68 22 18 -7 30 -6
43 4 17 13 16 14 -18 15 -46 0 -56 15 -29 44 23 25 27 56 9 74 -18 18 -26 15
-43 -18z"/>
<path d="M1362 2066 c-200 -49 -374 -221 -427 -422 -20 -76 -20 -222 0 -298 9
-33 32 -90 51 -127 41 -77 140 -187 154 -173 6 6 -11 32 -44 68 -92 99 -155
255 -156 387 0 66 34 190 72 262 66 125 208 236 344 271 78 20 212 21 287 1
88 -23 170 -69 242 -136 224 -210 235 -558 24 -783 -41 -44 -56 -67 -48 -72
15 -9 107 87 145 152 70 119 97 267 75 400 -38 222 -223 417 -444 469 -75 18
-203 18 -275 1z"/>
<path d="M768 2018 c-23 -36 -23 -43 7 -82 14 -18 25 -40 25 -49 0 -27 -23
-32 -38 -9 -8 12 -21 22 -29 22 -24 0 -26 -29 -4 -48 12 -9 24 -26 26 -37 2
-11 4 -22 4 -24 1 -2 7 2 15 8 16 14 30 0 40 -41 4 -19 2 -30 -10 -36 -14 -8
-14 -12 1 -48 13 -31 40 -77 72 -123 2 -3 10 2 18 10 12 12 7 22 -36 74 -42
51 -47 62 -34 71 8 6 15 19 15 28 0 19 21 21 38 4 6 -6 14 -9 18 -5 3 3 -10
25 -29 49 -33 40 -57 86 -57 109 0 16 30 10 47 -11 17 -20 53 -28 53 -11 0 4
-10 20 -21 35 -31 40 -17 42 41 7 41 -25 52 -28 56 -17 9 22 -2 34 -58 62 -28
14 -53 34 -55 45 -7 27 -37 20 -41 -9 -2 -14 -10 -22 -22 -22 -14 0 -20 9 -22
37 l-3 37 -17 -26z"/>
<path d="M2187 1897 c3 -14 0 -28 -6 -31 -21 -13 -11 -27 34 -47 60 -27 62
-51 3 -37 -24 5 -53 16 -65 24 -13 8 -23 10 -23 4 0 -14 39 -37 77 -45 55 -11
48 -25 -11 -20 -30 2 -73 13 -96 25 -23 12 -44 19 -47 16 -10 -10 18 -35 47
-41 16 -3 34 -13 40 -20 18 -21 2 -38 -29 -30 -24 6 -24 5 8 -19 42 -31 58
-33 66 -6 4 13 15 20 31 20 21 0 24 3 19 21 -6 19 -5 21 16 15 61 -19 80 -19
95 3 9 12 26 21 40 21 28 0 31 16 8 42 -14 14 -14 20 -4 33 14 17 9 20 -58 29
-32 5 -47 2 -59 -9 -8 -9 -25 -15 -37 -13 -16 2 -22 12 -26 42 -3 22 -10 41
-16 43 -7 2 -10 -5 -7 -20z"/>
<path d="M1467 1712 c-10 -10 -17 -29 -17 -43 -1 -13 -7 -35 -14 -48 l-14 -24
-26 42 c-15 23 -30 49 -33 57 -4 11 -34 14 -149 14 -154 0 -160 -2 -128 -48
12 -17 25 -22 59 -22 34 0 47 -5 55 -19 17 -32 12 -37 -30 -33 -43 4 -47 -2
-28 -43 10 -22 17 -25 59 -25 38 0 51 -4 59 -19 15 -29 13 -31 -30 -31 -44 0
-47 -5 -24 -38 11 -16 25 -22 54 -22 29 0 42 -5 50 -19 16 -31 12 -41 -16 -41
-20 0 -25 -4 -20 -16 3 -9 6 -18 6 -20 0 -2 15 -4 34 -4 25 0 39 -7 50 -22 22
-31 20 -36 -10 -40 l-26 -3 22 -27 c14 -19 31 -28 50 -28 37 0 44 -13 20 -35
-11 -10 -20 -23 -20 -30 0 -9 74 -108 110 -149 10 -10 110 122 110 145 0 9 -7
22 -15 29 -26 22 -18 40 19 40 25 0 38 6 50 25 21 32 20 35 -9 35 -25 0 -25 0
-10 31 12 23 22 30 40 27 22 -3 65 26 65 44 0 4 -12 8 -26 8 -20 0 -25 4 -20
16 3 9 6 20 6 25 0 5 18 9 39 9 30 0 44 6 55 22 23 32 20 38 -19 38 -38 0 -40
2 -25 31 8 14 21 19 55 19 34 0 47 5 59 22 24 33 20 38 -29 38 -50 0 -49 -1
-33 35 10 22 17 25 59 25 38 0 51 4 59 19 25 49 19 51 -125 51 l-135 0 -31
-50 c-17 -27 -35 -50 -40 -50 -7 0 -49 71 -49 83 0 3 9 7 21 10 38 10 9 27
-45 27 -39 0 -57 -5 -69 -18z"/>
<path d="M2280 1351 c0 -10 9 -30 20 -44 l21 -26 -33 -8 c-28 -7 -38 -19 -65
-73 -18 -36 -31 -71 -28 -77 2 -7 -2 -13 -10 -13 -20 0 -49 -46 -41 -65 3 -10
-1 -18 -12 -22 -9 -4 -57 -38 -105 -77 l-89 -71 6 -64 7 -63 -51 37 -50 37
-49 -17 -50 -16 14 -47 c8 -25 12 -48 10 -50 -3 -3 -28 12 -57 32 -34 23 -65
36 -85 36 l-31 0 5 -80 c5 -69 4 -80 -11 -86 -24 -9 -36 6 -42 52 -13 95 -15
104 -31 104 -14 0 -15 -11 -10 -81 3 -48 11 -87 19 -95 25 -25 62 -26 90 -4
23 17 27 30 30 78 l3 57 14 -60 c16 -68 23 -80 45 -72 14 5 14 11 1 54 -8 26
-13 49 -11 51 2 1 30 -15 62 -38 32 -22 61 -37 66 -32 4 4 1 32 -7 62 -8 30
-13 56 -11 57 2 2 13 -21 26 -52 23 -56 27 -60 47 -47 8 5 4 24 -13 67 -13 32
-23 63 -22 67 2 5 32 -15 66 -43 35 -28 67 -47 72 -43 4 5 4 34 0 64 -5 30 -9
69 -9 85 l-1 30 28 -35 c15 -19 38 -47 52 -62 l25 -28 44 38 c36 32 41 40 28
50 -11 10 -20 8 -41 -9 -26 -20 -29 -20 -44 -5 -15 15 -14 18 18 45 l35 29 30
-29 c36 -34 41 -35 49 -12 5 11 -1 23 -16 35 -23 18 -23 18 23 18 53 0 85 23
47 34 -13 3 -33 6 -45 6 -19 0 -23 5 -23 33 0 31 4 35 41 46 31 9 44 10 55 0
18 -15 9 -29 -22 -29 -17 0 -24 -5 -24 -20 0 -23 25 -26 64 -9 31 14 40 47 21
76 -20 29 -48 37 -91 23 -27 -9 -39 -9 -47 -1 -9 9 -6 13 11 17 12 4 22 13 22
20 0 20 6 18 77 -18 54 -28 65 -31 73 -18 7 11 -5 22 -55 50 -36 19 -65 41
-65 48 0 18 11 15 83 -17 55 -25 66 -27 71 -14 3 8 6 17 6 19 0 2 -31 18 -70
35 -38 18 -70 35 -70 39 0 29 79 43 146 26 24 -6 32 -4 37 7 4 12 -7 20 -43
32 -31 10 -62 30 -84 56 -41 44 -46 47 -46 20z"/>
<path d="M705 1320 c-3 -6 -3 -20 0 -31 7 -21 5 -21 -75 -14 l-82 7 7 -33 c14
-62 23 -79 41 -72 12 4 14 14 10 36 -6 29 -5 29 25 23 17 -3 44 -6 60 -6 16 0
29 -3 29 -7 0 -5 -29 -24 -65 -43 -36 -19 -65 -39 -65 -43 0 -16 29 -18 59 -3
28 15 31 15 45 -6 20 -29 20 -35 -1 -43 -10 -3 -27 -12 -37 -20 -15 -11 -16
-17 -7 -28 10 -12 22 -9 79 20 70 36 66 26 -18 -39 l-34 -26 29 -42 c15 -22
33 -44 39 -48 6 -4 19 -19 29 -34 28 -44 62 -37 124 24 29 29 53 49 53 45 0
-4 -24 -35 -54 -70 l-54 -64 29 -27 c26 -25 30 -26 56 -12 25 12 32 12 56 -1
25 -12 27 -18 22 -45 -7 -28 4 -47 26 -48 4 0 12 39 19 88 6 48 14 95 16 105
8 27 -8 21 -96 -34 -45 -28 -84 -48 -87 -45 -3 2 20 35 51 72 31 37 56 71 56
75 0 4 -12 17 -27 29 l-27 21 -57 -57 c-56 -55 -79 -62 -79 -23 0 10 -4 18 -9
17 -5 -2 -21 13 -36 32 -24 33 -25 36 -8 48 16 11 21 9 43 -19 22 -26 28 -29
38 -16 10 11 8 20 -9 41 -17 21 -19 30 -10 39 10 9 18 6 35 -15 22 -28 40 -35
50 -20 6 10 -80 132 -92 132 -4 0 -17 -7 -29 -15 -21 -15 -23 -14 -40 11 -18
28 -19 27 31 59 14 9 13 17 -7 73 -21 58 -38 75 -52 52z"/>
<path d="M1092 757 c-36 -95 -37 -103 -18 -110 10 -4 20 8 33 39 10 24 21 44
24 44 3 0 14 -28 25 -62 11 -34 25 -63 31 -65 11 -4 84 167 76 180 -11 19 -33
3 -50 -38 -10 -25 -20 -45 -23 -45 -3 0 -14 30 -25 67 -11 36 -25 68 -31 70
-6 2 -25 -34 -42 -80z"/>
<path d="M1293 750 c-39 -24 -60 -81 -44 -122 15 -40 68 -70 110 -64 41 6 81
41 81 71 0 19 -7 24 -42 29 -28 5 -44 3 -49 -6 -10 -17 -2 -28 22 -28 26 0 24
-19 -3 -29 -65 -24 -117 60 -68 109 26 26 74 26 100 0 22 -22 40 -19 40 6 0
19 -58 54 -90 54 -14 0 -39 -9 -57 -20z"/>
</g>
</svg>
